<mxfile host="app.diagrams.net" modified="2022-09-28T09:33:55.161Z" agent="5.0 (Windows NT 10.0; Win64; x64) AppleWebKit/537.36 (KHTML, like Gecko) Chrome/105.0.0.0 Safari/537.36" etag="kEHFCfnUfCMecbypdio4" version="20.3.2" type="github">
  <diagram id="JDAgu7CtYTzbDPVyKARE" name="Page-1">
    <mxGraphModel dx="1422" dy="697" grid="1" gridSize="10" guides="1" tooltips="1" connect="1" arrows="1" fold="1" page="1" pageScale="1" pageWidth="3300" pageHeight="4681" math="0" shadow="0">
      <root>
        <mxCell id="0" />
        <mxCell id="1" parent="0" />
        <mxCell id="5B7Q1g4kLcetVFQa_htC-1" value="disk" style="shape=cylinder3;whiteSpace=wrap;html=1;boundedLbl=1;backgroundOutline=1;size=15;fillColor=#d5e8d4;strokeColor=#82b366;" vertex="1" parent="1">
          <mxGeometry x="200" y="315" width="130" height="80" as="geometry" />
        </mxCell>
        <mxCell id="5B7Q1g4kLcetVFQa_htC-2" value="&lt;b style=&quot;line-height: 1.6;&quot;&gt;&lt;font style=&quot;font-size: 29px;&quot;&gt;MySQL(original)&lt;/font&gt;&lt;/b&gt;" style="shape=process;whiteSpace=wrap;html=1;backgroundOutline=1;" vertex="1" parent="1">
          <mxGeometry x="180" y="100" width="330" height="100" as="geometry" />
        </mxCell>
        <mxCell id="5B7Q1g4kLcetVFQa_htC-5" value="" style="endArrow=classic;startArrow=classic;html=1;rounded=0;" edge="1" parent="1">
          <mxGeometry width="50" height="50" relative="1" as="geometry">
            <mxPoint x="250" y="295" as="sourcePoint" />
            <mxPoint x="250" y="215" as="targetPoint" />
          </mxGeometry>
        </mxCell>
        <mxCell id="5B7Q1g4kLcetVFQa_htC-6" value="redolog" style="text;html=1;strokeColor=none;fillColor=none;align=center;verticalAlign=middle;whiteSpace=wrap;rounded=0;" vertex="1" parent="1">
          <mxGeometry x="200" y="245" width="60" height="30" as="geometry" />
        </mxCell>
        <mxCell id="5B7Q1g4kLcetVFQa_htC-7" value="" style="endArrow=classic;startArrow=classic;html=1;rounded=0;" edge="1" parent="1">
          <mxGeometry width="50" height="50" relative="1" as="geometry">
            <mxPoint x="290" y="295" as="sourcePoint" />
            <mxPoint x="290" y="215" as="targetPoint" />
          </mxGeometry>
        </mxCell>
        <mxCell id="5B7Q1g4kLcetVFQa_htC-8" value="binlog" style="text;html=1;strokeColor=none;fillColor=none;align=center;verticalAlign=middle;whiteSpace=wrap;rounded=0;" vertex="1" parent="1">
          <mxGeometry x="290" y="245" width="60" height="30" as="geometry" />
        </mxCell>
        <mxCell id="5B7Q1g4kLcetVFQa_htC-9" value="pfs" style="ellipse;shape=cloud;whiteSpace=wrap;html=1;fillColor=#d5e8d4;strokeColor=#82b366;" vertex="1" parent="1">
          <mxGeometry x="370" y="315" width="120" height="80" as="geometry" />
        </mxCell>
        <mxCell id="5B7Q1g4kLcetVFQa_htC-10" value="" style="endArrow=classic;startArrow=classic;html=1;rounded=0;" edge="1" parent="1">
          <mxGeometry width="50" height="50" relative="1" as="geometry">
            <mxPoint x="440" y="310" as="sourcePoint" />
            <mxPoint x="440" y="210" as="targetPoint" />
          </mxGeometry>
        </mxCell>
        <mxCell id="5B7Q1g4kLcetVFQa_htC-11" value="ibd files" style="text;html=1;strokeColor=none;fillColor=none;align=center;verticalAlign=middle;whiteSpace=wrap;rounded=0;" vertex="1" parent="1">
          <mxGeometry x="450" y="245" width="60" height="30" as="geometry" />
        </mxCell>
        <mxCell id="5B7Q1g4kLcetVFQa_htC-26" value="&lt;span style=&quot;color: rgb(36, 36, 36); font-family: -apple-system, BlinkMacSystemFont, &amp;quot;Segoe UI&amp;quot;, system-ui, &amp;quot;Apple Color Emoji&amp;quot;, &amp;quot;Segoe UI Emoji&amp;quot;, &amp;quot;Segoe UI Web&amp;quot;, sans-serif; font-size: 14px; text-align: start; background-color: rgb(255, 255, 255);&quot;&gt;set global snapshot=ON;&lt;/span&gt;" style="text;html=1;strokeColor=none;fillColor=none;align=center;verticalAlign=middle;whiteSpace=wrap;rounded=0;fontSize=20;" vertex="1" parent="1">
          <mxGeometry x="520" y="150" width="180" height="30" as="geometry" />
        </mxCell>
        <mxCell id="5B7Q1g4kLcetVFQa_htC-27" value="1" style="ellipse;whiteSpace=wrap;html=1;aspect=fixed;fontSize=20;fillColor=#d80073;fontColor=#ffffff;strokeColor=#A50040;" vertex="1" parent="1">
          <mxGeometry x="520" y="130" width="30" height="30" as="geometry" />
        </mxCell>
        <mxCell id="5B7Q1g4kLcetVFQa_htC-28" value="&lt;span style=&quot;color: rgb(36, 36, 36); font-family: -apple-system, BlinkMacSystemFont, &amp;quot;Segoe UI&amp;quot;, system-ui, &amp;quot;Apple Color Emoji&amp;quot;, &amp;quot;Segoe UI Emoji&amp;quot;, &amp;quot;Segoe UI Web&amp;quot;, sans-serif; font-size: 14px; text-align: start; background-color: rgb(255, 255, 255);&quot;&gt;double write logs&lt;/span&gt;" style="text;html=1;strokeColor=none;fillColor=none;align=center;verticalAlign=middle;whiteSpace=wrap;rounded=0;fontSize=20;" vertex="1" parent="1">
          <mxGeometry x="370" y="425" width="180" height="30" as="geometry" />
        </mxCell>
        <mxCell id="5B7Q1g4kLcetVFQa_htC-29" value="2" style="ellipse;whiteSpace=wrap;html=1;aspect=fixed;fontSize=20;fillColor=#d80073;fontColor=#ffffff;strokeColor=#A50040;" vertex="1" parent="1">
          <mxGeometry x="370" y="415" width="30" height="30" as="geometry" />
        </mxCell>
        <mxCell id="5B7Q1g4kLcetVFQa_htC-30" value="&lt;div style=&quot;text-align: start;&quot;&gt;&lt;font face=&quot;-apple-system, BlinkMacSystemFont, Segoe UI, system-ui, Apple Color Emoji, Segoe UI Emoji, Segoe UI Web, sans-serif&quot; color=&quot;#242424&quot;&gt;&lt;span style=&quot;font-size: 14px; background-color: rgb(255, 255, 255);&quot;&gt;azure pfs take snapshot&lt;/span&gt;&lt;/font&gt;&lt;/div&gt;" style="text;html=1;strokeColor=none;fillColor=none;align=center;verticalAlign=middle;whiteSpace=wrap;rounded=0;fontSize=20;" vertex="1" parent="1">
          <mxGeometry x="490" y="320" width="180" height="30" as="geometry" />
        </mxCell>
        <mxCell id="5B7Q1g4kLcetVFQa_htC-31" value="3" style="ellipse;whiteSpace=wrap;html=1;aspect=fixed;fontSize=20;fillColor=#d80073;fontColor=#ffffff;strokeColor=#A50040;" vertex="1" parent="1">
          <mxGeometry x="490" y="300" width="30" height="30" as="geometry" />
        </mxCell>
        <mxCell id="5B7Q1g4kLcetVFQa_htC-33" value="" style="curved=1;endArrow=classic;html=1;rounded=0;fontSize=20;entryX=0.875;entryY=0.5;entryDx=0;entryDy=0;entryPerimeter=0;" edge="1" parent="1" target="5B7Q1g4kLcetVFQa_htC-9">
          <mxGeometry width="50" height="50" relative="1" as="geometry">
            <mxPoint x="320" y="395" as="sourcePoint" />
            <mxPoint x="500" y="335" as="targetPoint" />
            <Array as="points">
              <mxPoint x="420" y="425" />
              <mxPoint x="480" y="425" />
              <mxPoint x="520" y="355" />
            </Array>
          </mxGeometry>
        </mxCell>
        <mxCell id="5B7Q1g4kLcetVFQa_htC-34" value="disk" style="shape=cylinder3;whiteSpace=wrap;html=1;boundedLbl=1;backgroundOutline=1;size=15;fillColor=#d5e8d4;strokeColor=#82b366;" vertex="1" parent="1">
          <mxGeometry x="40" y="1080" width="130" height="80" as="geometry" />
        </mxCell>
        <mxCell id="5B7Q1g4kLcetVFQa_htC-35" value="&lt;b style=&quot;line-height: 1.6;&quot;&gt;&lt;font style=&quot;font-size: 29px;&quot;&gt;MySQL(restore)&lt;/font&gt;&lt;/b&gt;" style="shape=process;whiteSpace=wrap;html=1;backgroundOutline=1;" vertex="1" parent="1">
          <mxGeometry x="185" y="720" width="490" height="100" as="geometry" />
        </mxCell>
        <mxCell id="5B7Q1g4kLcetVFQa_htC-36" value="" style="endArrow=classic;startArrow=classic;html=1;rounded=0;" edge="1" parent="1">
          <mxGeometry width="50" height="50" relative="1" as="geometry">
            <mxPoint x="90" y="1085" as="sourcePoint" />
            <mxPoint x="90" y="1005" as="targetPoint" />
          </mxGeometry>
        </mxCell>
        <mxCell id="5B7Q1g4kLcetVFQa_htC-37" value="redolog" style="text;html=1;strokeColor=none;fillColor=none;align=center;verticalAlign=middle;whiteSpace=wrap;rounded=0;" vertex="1" parent="1">
          <mxGeometry x="40" y="1035" width="60" height="30" as="geometry" />
        </mxCell>
        <mxCell id="5B7Q1g4kLcetVFQa_htC-38" value="" style="endArrow=classic;startArrow=classic;html=1;rounded=0;" edge="1" parent="1">
          <mxGeometry width="50" height="50" relative="1" as="geometry">
            <mxPoint x="130" y="1085" as="sourcePoint" />
            <mxPoint x="130" y="1005" as="targetPoint" />
          </mxGeometry>
        </mxCell>
        <mxCell id="5B7Q1g4kLcetVFQa_htC-39" value="binlog" style="text;html=1;strokeColor=none;fillColor=none;align=center;verticalAlign=middle;whiteSpace=wrap;rounded=0;" vertex="1" parent="1">
          <mxGeometry x="130" y="1035" width="60" height="30" as="geometry" />
        </mxCell>
        <mxCell id="5B7Q1g4kLcetVFQa_htC-40" value="pfs" style="ellipse;shape=cloud;whiteSpace=wrap;html=1;fillColor=#d5e8d4;strokeColor=#82b366;" vertex="1" parent="1">
          <mxGeometry x="210" y="1080" width="120" height="80" as="geometry" />
        </mxCell>
        <mxCell id="5B7Q1g4kLcetVFQa_htC-41" value="" style="endArrow=classic;startArrow=classic;html=1;rounded=0;" edge="1" parent="1">
          <mxGeometry width="50" height="50" relative="1" as="geometry">
            <mxPoint x="280" y="1100" as="sourcePoint" />
            <mxPoint x="280" y="1000" as="targetPoint" />
          </mxGeometry>
        </mxCell>
        <mxCell id="5B7Q1g4kLcetVFQa_htC-42" value="ibd files" style="text;html=1;strokeColor=none;fillColor=none;align=center;verticalAlign=middle;whiteSpace=wrap;rounded=0;" vertex="1" parent="1">
          <mxGeometry x="290" y="1035" width="60" height="30" as="geometry" />
        </mxCell>
        <mxCell id="5B7Q1g4kLcetVFQa_htC-50" value="binlogfs(readonly)" style="rounded=1;whiteSpace=wrap;html=1;fontSize=20;fillColor=#bac8d3;strokeColor=#23445d;" vertex="1" parent="1">
          <mxGeometry x="50" y="940" width="310" height="60" as="geometry" />
        </mxCell>
        <mxCell id="5B7Q1g4kLcetVFQa_htC-51" value="" style="endArrow=classic;startArrow=classic;html=1;rounded=0;fontSize=20;" edge="1" parent="1">
          <mxGeometry width="50" height="50" relative="1" as="geometry">
            <mxPoint x="220" y="940" as="sourcePoint" />
            <mxPoint x="220" y="830" as="targetPoint" />
            <Array as="points">
              <mxPoint x="220" y="880" />
            </Array>
          </mxGeometry>
        </mxCell>
        <mxCell id="5B7Q1g4kLcetVFQa_htC-52" value="&quot;lib c&quot; api to read/write files" style="text;html=1;align=center;verticalAlign=middle;resizable=0;points=[];autosize=1;strokeColor=#d6b656;fillColor=#fff2cc;fontSize=20;" vertex="1" parent="1">
          <mxGeometry x="90" y="860" width="260" height="40" as="geometry" />
        </mxCell>
        <mxCell id="5B7Q1g4kLcetVFQa_htC-54" value="disk" style="shape=cylinder3;whiteSpace=wrap;html=1;boundedLbl=1;backgroundOutline=1;size=15;fillColor=#d5e8d4;strokeColor=#82b366;" vertex="1" parent="1">
          <mxGeometry x="430" y="935" width="130" height="80" as="geometry" />
        </mxCell>
        <mxCell id="5B7Q1g4kLcetVFQa_htC-55" value="" style="endArrow=classic;startArrow=classic;html=1;rounded=0;" edge="1" parent="1">
          <mxGeometry width="50" height="50" relative="1" as="geometry">
            <mxPoint x="480" y="915" as="sourcePoint" />
            <mxPoint x="480" y="835" as="targetPoint" />
          </mxGeometry>
        </mxCell>
        <mxCell id="5B7Q1g4kLcetVFQa_htC-56" value="redolog" style="text;html=1;strokeColor=none;fillColor=none;align=center;verticalAlign=middle;whiteSpace=wrap;rounded=0;" vertex="1" parent="1">
          <mxGeometry x="430" y="865" width="60" height="30" as="geometry" />
        </mxCell>
        <mxCell id="5B7Q1g4kLcetVFQa_htC-57" value="" style="endArrow=classic;startArrow=classic;html=1;rounded=0;" edge="1" parent="1">
          <mxGeometry width="50" height="50" relative="1" as="geometry">
            <mxPoint x="520" y="915" as="sourcePoint" />
            <mxPoint x="520" y="835" as="targetPoint" />
          </mxGeometry>
        </mxCell>
        <mxCell id="5B7Q1g4kLcetVFQa_htC-58" value="binlog" style="text;html=1;strokeColor=none;fillColor=none;align=center;verticalAlign=middle;whiteSpace=wrap;rounded=0;" vertex="1" parent="1">
          <mxGeometry x="520" y="865" width="60" height="30" as="geometry" />
        </mxCell>
        <mxCell id="5B7Q1g4kLcetVFQa_htC-59" value="pfs" style="ellipse;shape=cloud;whiteSpace=wrap;html=1;fillColor=#d5e8d4;strokeColor=#82b366;" vertex="1" parent="1">
          <mxGeometry x="600" y="935" width="120" height="80" as="geometry" />
        </mxCell>
        <mxCell id="5B7Q1g4kLcetVFQa_htC-60" value="" style="endArrow=classic;startArrow=classic;html=1;rounded=0;" edge="1" parent="1">
          <mxGeometry width="50" height="50" relative="1" as="geometry">
            <mxPoint x="670" y="930" as="sourcePoint" />
            <mxPoint x="670" y="830" as="targetPoint" />
          </mxGeometry>
        </mxCell>
        <mxCell id="5B7Q1g4kLcetVFQa_htC-61" value="ibd files" style="text;html=1;strokeColor=none;fillColor=none;align=center;verticalAlign=middle;whiteSpace=wrap;rounded=0;" vertex="1" parent="1">
          <mxGeometry x="680" y="865" width="60" height="30" as="geometry" />
        </mxCell>
      </root>
    </mxGraphModel>
  </diagram>
</mxfile>
